<mxfile host="app.diagrams.net" agent="Mozilla/5.0 (Windows NT 10.0; Win64; x64) AppleWebKit/537.36 (KHTML, like Gecko) Chrome/131.0.0.0 Safari/537.36" version="24.8.4">
  <diagram name="Page-1" id="G7vqNUvlcgqNzV2kF21T">
    <mxGraphModel dx="2100" dy="1206" grid="1" gridSize="10" guides="1" tooltips="1" connect="1" arrows="1" fold="1" page="1" pageScale="1" pageWidth="850" pageHeight="1100" math="0" shadow="0">
      <root>
        <mxCell id="0" />
        <mxCell id="1" parent="0" />
        <mxCell id="ZVY1rsJzN2G3BCUhekUe-4" style="edgeStyle=orthogonalEdgeStyle;rounded=0;orthogonalLoop=1;jettySize=auto;html=1;entryX=0.5;entryY=0;entryDx=0;entryDy=0;" edge="1" parent="1" source="kb0sAVSg3IdVALRTSQ9f-1" target="jx4hI_dmpuOMWNrsl0VO-13">
          <mxGeometry relative="1" as="geometry" />
        </mxCell>
        <mxCell id="kb0sAVSg3IdVALRTSQ9f-1" value="Text" style="rounded=1;whiteSpace=wrap;html=1;labelBackgroundColor=none;" parent="1" vertex="1">
          <mxGeometry x="299" y="527.89" width="120" height="60" as="geometry" />
        </mxCell>
        <mxCell id="jx4hI_dmpuOMWNrsl0VO-9" style="edgeStyle=orthogonalEdgeStyle;rounded=1;orthogonalLoop=1;jettySize=auto;html=1;entryX=0.5;entryY=0;entryDx=0;entryDy=0;labelBackgroundColor=none;fontColor=default;" parent="1" source="jx4hI_dmpuOMWNrsl0VO-1" target="jx4hI_dmpuOMWNrsl0VO-5" edge="1">
          <mxGeometry relative="1" as="geometry" />
        </mxCell>
        <mxCell id="jx4hI_dmpuOMWNrsl0VO-1" value="Image" style="rounded=1;whiteSpace=wrap;html=1;labelBackgroundColor=none;" parent="1" vertex="1">
          <mxGeometry x="534" y="407.89" width="120" height="60" as="geometry" />
        </mxCell>
        <mxCell id="jx4hI_dmpuOMWNrsl0VO-6" style="edgeStyle=orthogonalEdgeStyle;rounded=1;orthogonalLoop=1;jettySize=auto;html=1;entryX=0.5;entryY=0;entryDx=0;entryDy=0;labelBackgroundColor=none;fontColor=default;" parent="1" source="jx4hI_dmpuOMWNrsl0VO-2" target="jx4hI_dmpuOMWNrsl0VO-4" edge="1">
          <mxGeometry relative="1" as="geometry" />
        </mxCell>
        <mxCell id="jx4hI_dmpuOMWNrsl0VO-2" value="Voice&amp;nbsp;" style="rounded=1;whiteSpace=wrap;html=1;labelBackgroundColor=none;" parent="1" vertex="1">
          <mxGeometry x="54" y="407.89" width="120" height="60" as="geometry" />
        </mxCell>
        <mxCell id="jx4hI_dmpuOMWNrsl0VO-7" style="edgeStyle=orthogonalEdgeStyle;rounded=1;orthogonalLoop=1;jettySize=auto;html=1;entryX=0;entryY=0.5;entryDx=0;entryDy=0;labelBackgroundColor=none;fontColor=default;" parent="1" source="jx4hI_dmpuOMWNrsl0VO-4" edge="1">
          <mxGeometry relative="1" as="geometry">
            <mxPoint x="299" y="557.8899999999999" as="targetPoint" />
          </mxGeometry>
        </mxCell>
        <mxCell id="jx4hI_dmpuOMWNrsl0VO-4" value="Voice - to -&amp;nbsp;&lt;span style=&quot;color: rgba(0, 0, 0, 0); font-family: monospace; font-size: 0px; text-align: start; text-wrap-mode: nowrap;&quot;&gt;%3CmxGraphModel%3E%3Croot%3E%3CmxCell%20id%3D%220%22%2F%3E%3CmxCell%20id%3D%221%22%20parent%3D%220%22%2F%3E%3CmxCell%20id%3D%222%22%20value%3D%22Voice%26amp%3Bnbsp%3B%22%20style%3D%22rounded%3D1%3BwhiteSpace%3Dwrap%3Bhtml%3D1%3B%22%20vertex%3D%221%22%20parent%3D%221%22%3E%3CmxGeometry%20x%3D%22120%22%20y%3D%2280%22%20width%3D%22120%22%20height%3D%2260%22%20as%3D%22geometry%22%2F%3E%3C%2FmxCell%3E%3C%2Froot%3E%3C%2FmxGraphModel%3E&lt;/span&gt;Text&lt;div&gt;(Google Speech-to-Text)&lt;/div&gt;" style="rounded=1;whiteSpace=wrap;html=1;labelBackgroundColor=none;" parent="1" vertex="1">
          <mxGeometry x="54" y="527.89" width="120" height="60" as="geometry" />
        </mxCell>
        <mxCell id="jx4hI_dmpuOMWNrsl0VO-10" style="edgeStyle=orthogonalEdgeStyle;rounded=1;orthogonalLoop=1;jettySize=auto;html=1;entryX=1;entryY=0.5;entryDx=0;entryDy=0;labelBackgroundColor=none;fontColor=default;" parent="1" source="jx4hI_dmpuOMWNrsl0VO-5" edge="1">
          <mxGeometry relative="1" as="geometry">
            <mxPoint x="419" y="557.8899999999999" as="targetPoint" />
          </mxGeometry>
        </mxCell>
        <mxCell id="jx4hI_dmpuOMWNrsl0VO-5" value="Image - to -&amp;nbsp;&lt;span style=&quot;color: rgba(0, 0, 0, 0); font-family: monospace; font-size: 0px; text-align: start; text-wrap-mode: nowrap;&quot;&gt;%3CmxGraphModel%3E%3Croot%3E%3CmxCell%20id%3D%220%22%2F%3E%3CmxCell%20id%3D%221%22%20parent%3D%220%22%2F%3E%3CmxCell%20id%3D%222%22%20value%3D%22Voice%26amp%3Bnbsp%3B%22%20style%3D%22rounded%3D1%3BwhiteSpace%3Dwrap%3Bhtml%3D1%3B%22%20vertex%3D%221%22%20parent%3D%221%22%3E%3CmxGeometry%20x%3D%22120%22%20y%3D%2280%22%20width%3D%22120%22%20height%3D%2260%22%20as%3D%22geometry%22%2F%3E%3C%2FmxCell%3E%3C%2Froot%3E%3C%2FmxGraphModel%3E&lt;/span&gt;Text&lt;div&gt;(OCR)&lt;/div&gt;" style="rounded=1;whiteSpace=wrap;html=1;labelBackgroundColor=none;" parent="1" vertex="1">
          <mxGeometry x="534" y="527.89" width="120" height="60" as="geometry" />
        </mxCell>
        <mxCell id="ZVY1rsJzN2G3BCUhekUe-9" style="edgeStyle=orthogonalEdgeStyle;rounded=0;orthogonalLoop=1;jettySize=auto;html=1;entryX=0.5;entryY=1;entryDx=0;entryDy=0;" edge="1" parent="1" source="jx4hI_dmpuOMWNrsl0VO-13" target="jx4hI_dmpuOMWNrsl0VO-44">
          <mxGeometry relative="1" as="geometry" />
        </mxCell>
        <mxCell id="jx4hI_dmpuOMWNrsl0VO-13" value="&lt;font style=&quot;font-size: 24px;&quot;&gt;Llama3.2&lt;/font&gt;" style="rounded=1;whiteSpace=wrap;html=1;align=center;labelBackgroundColor=none;" parent="1" vertex="1">
          <mxGeometry x="222" y="750" width="407" height="60" as="geometry" />
        </mxCell>
        <mxCell id="jx4hI_dmpuOMWNrsl0VO-28" value="Database&amp;nbsp;" style="whiteSpace=wrap;html=1;rounded=1;labelBackgroundColor=none;" parent="1" vertex="1">
          <mxGeometry x="365.005" y="977.89" width="120" height="60" as="geometry" />
        </mxCell>
        <mxCell id="jx4hI_dmpuOMWNrsl0VO-49" style="edgeStyle=orthogonalEdgeStyle;rounded=1;orthogonalLoop=1;jettySize=auto;html=1;entryX=0.5;entryY=0;entryDx=0;entryDy=0;labelBackgroundColor=none;fontColor=default;" parent="1" source="jx4hI_dmpuOMWNrsl0VO-34" target="jx4hI_dmpuOMWNrsl0VO-38" edge="1">
          <mxGeometry relative="1" as="geometry" />
        </mxCell>
        <mxCell id="jx4hI_dmpuOMWNrsl0VO-34" value="Chatbot&amp;nbsp;" style="rounded=1;whiteSpace=wrap;html=1;labelBackgroundColor=none;" parent="1" vertex="1">
          <mxGeometry x="459" y="183" width="120" height="60" as="geometry" />
        </mxCell>
        <mxCell id="jx4hI_dmpuOMWNrsl0VO-54" style="edgeStyle=orthogonalEdgeStyle;rounded=1;orthogonalLoop=1;jettySize=auto;html=1;labelBackgroundColor=none;fontColor=default;" parent="1" source="jx4hI_dmpuOMWNrsl0VO-38" target="jx4hI_dmpuOMWNrsl0VO-2" edge="1">
          <mxGeometry relative="1" as="geometry" />
        </mxCell>
        <mxCell id="jx4hI_dmpuOMWNrsl0VO-55" style="edgeStyle=orthogonalEdgeStyle;rounded=1;orthogonalLoop=1;jettySize=auto;html=1;entryX=0.5;entryY=0;entryDx=0;entryDy=0;labelBackgroundColor=none;fontColor=default;" parent="1" source="jx4hI_dmpuOMWNrsl0VO-38" target="jx4hI_dmpuOMWNrsl0VO-1" edge="1">
          <mxGeometry relative="1" as="geometry" />
        </mxCell>
        <mxCell id="ZVY1rsJzN2G3BCUhekUe-3" style="edgeStyle=orthogonalEdgeStyle;rounded=1;orthogonalLoop=1;jettySize=auto;html=1;entryX=0.5;entryY=0;entryDx=0;entryDy=0;labelBackgroundColor=none;fontColor=default;" edge="1" parent="1" source="jx4hI_dmpuOMWNrsl0VO-38" target="kb0sAVSg3IdVALRTSQ9f-1">
          <mxGeometry relative="1" as="geometry" />
        </mxCell>
        <mxCell id="jx4hI_dmpuOMWNrsl0VO-38" value="" style="ellipse;whiteSpace=wrap;html=1;aspect=fixed;labelBackgroundColor=none;rounded=1;" parent="1" vertex="1">
          <mxGeometry x="329" y="283" width="60" height="60" as="geometry" />
        </mxCell>
        <mxCell id="jx4hI_dmpuOMWNrsl0VO-51" style="edgeStyle=orthogonalEdgeStyle;rounded=1;orthogonalLoop=1;jettySize=auto;html=1;entryX=1;entryY=0.5;entryDx=0;entryDy=0;labelBackgroundColor=none;fontColor=default;" parent="1" source="jx4hI_dmpuOMWNrsl0VO-44" target="jx4hI_dmpuOMWNrsl0VO-34" edge="1">
          <mxGeometry relative="1" as="geometry" />
        </mxCell>
        <mxCell id="jx4hI_dmpuOMWNrsl0VO-44" value="" style="ellipse;whiteSpace=wrap;html=1;aspect=fixed;labelBackgroundColor=none;rounded=1;" parent="1" vertex="1">
          <mxGeometry x="724" y="281" width="60" height="60" as="geometry" />
        </mxCell>
        <mxCell id="jx4hI_dmpuOMWNrsl0VO-53" style="edgeStyle=orthogonalEdgeStyle;rounded=1;orthogonalLoop=1;jettySize=auto;html=1;entryX=0.5;entryY=0;entryDx=0;entryDy=0;labelBackgroundColor=none;fontColor=default;" parent="1" source="jx4hI_dmpuOMWNrsl0VO-52" target="jx4hI_dmpuOMWNrsl0VO-34" edge="1">
          <mxGeometry relative="1" as="geometry" />
        </mxCell>
        <mxCell id="jx4hI_dmpuOMWNrsl0VO-52" value="Actor" style="shape=umlActor;verticalLabelPosition=bottom;verticalAlign=top;html=1;outlineConnect=0;labelBackgroundColor=none;rounded=1;" parent="1" vertex="1">
          <mxGeometry x="134" y="63" width="60" height="130" as="geometry" />
        </mxCell>
        <mxCell id="jx4hI_dmpuOMWNrsl0VO-57" value="Response" style="text;html=1;align=center;verticalAlign=middle;whiteSpace=wrap;rounded=1;labelBackgroundColor=none;" parent="1" vertex="1">
          <mxGeometry x="711.5" y="296" width="85" height="30" as="geometry" />
        </mxCell>
        <mxCell id="jx4hI_dmpuOMWNrsl0VO-58" value="Input Formats&amp;nbsp;" style="text;html=1;align=center;verticalAlign=middle;whiteSpace=wrap;rounded=1;labelBackgroundColor=none;" parent="1" vertex="1">
          <mxGeometry x="330" y="296" width="60" height="30" as="geometry" />
        </mxCell>
        <mxCell id="ZVY1rsJzN2G3BCUhekUe-7" style="edgeStyle=orthogonalEdgeStyle;rounded=0;orthogonalLoop=1;jettySize=auto;html=1;exitX=0.75;exitY=0;exitDx=0;exitDy=0;entryX=0.571;entryY=0.987;entryDx=0;entryDy=0;entryPerimeter=0;" edge="1" parent="1" source="jx4hI_dmpuOMWNrsl0VO-28" target="jx4hI_dmpuOMWNrsl0VO-13">
          <mxGeometry relative="1" as="geometry" />
        </mxCell>
        <mxCell id="ZVY1rsJzN2G3BCUhekUe-8" style="edgeStyle=orthogonalEdgeStyle;rounded=0;orthogonalLoop=1;jettySize=auto;html=1;exitX=0.423;exitY=1.004;exitDx=0;exitDy=0;entryX=0.25;entryY=0;entryDx=0;entryDy=0;exitPerimeter=0;" edge="1" parent="1" source="jx4hI_dmpuOMWNrsl0VO-13" target="jx4hI_dmpuOMWNrsl0VO-28">
          <mxGeometry relative="1" as="geometry" />
        </mxCell>
      </root>
    </mxGraphModel>
  </diagram>
</mxfile>
